PathFileType	4	(X/Y/Z)	/Users/itak/Documents/Research/Walk-IL/dataset/trc/00179_00008.trc
DataRate	CameraRate	NumFrames	NumMarkers	Units	OrigDataRate	OrigDataStartFrame	OrigNumFrames
100.000000	100.000000	4	53	mm	100.000000	372	745
Frame#	Time	RPSI			LPSI			L3			STRN			T10			C7			CLAV			RBAK			LBAK			LSHO			LUPA			LAEL			LAOL			LWTS			LWPS			LFRA			LIFD			LHPS			LHTS			RSHO			RUPA			RAEL			RAOL			RWTS			RWPS			RFRA			RIFD			RHTS			RHPS			RBHD			LFHD			RFHD			LBHD			LHIP			RHIP			RASI			LASI			LKNE			LTHI			LANK			LTIP			LTOE			LMT1			LMT5			LHEE			RKNE			RTHI			RANK			RTIP			RTOE			RMT1			RMT5			RHEE			
		X1	Y1	Z1	X2	Y2	Z2	X3	Y3	Z3	X4	Y4	Z4	X5	Y5	Z5	X6	Y6	Z6	X7	Y7	Z7	X8	Y8	Z8	X9	Y9	Z9	X10	Y10	Z10	X11	Y11	Z11	X12	Y12	Z12	X13	Y13	Z13	X14	Y14	Z14	X15	Y15	Z15	X16	Y16	Z16	X17	Y17	Z17	X18	Y18	Z18	X19	Y19	Z19	X20	Y20	Z20	X21	Y21	Z21	X22	Y22	Z22	X23	Y23	Z23	X24	Y24	Z24	X25	Y25	Z25	X26	Y26	Z26	X27	Y27	Z27	X28	Y28	Z28	X29	Y29	Z29	X30	Y30	Z30	X31	Y31	Z31	X32	Y32	Z32	X33	Y33	Z33	X34	Y34	Z34	X35	Y35	Z35	X36	Y36	Z36	X37	Y37	Z37	X38	Y38	Z38	X39	Y39	Z39	X40	Y40	Z40	X41	Y41	Z41	X42	Y42	Z42	X43	Y43	Z43	X44	Y44	Z44	X45	Y45	Z45	X46	Y46	Z46	X47	Y47	Z47	X48	Y48	Z48	X49	Y49	Z49	X50	Y50	Z50	X51	Y51	Z51	X52	Y52	Z52	X53	Y53	Z53	

373	3.72	331.2653503417969	1028.649291992188	-496.4449462890625	312.0104675292969	1019.408813476562	-377.1965026855469	323.3866577148438	1059.674926757812	-440.9703979492188	52.73416900634766	1260.016357421875	-452.3282470703125	354.3506469726562	1226.45849609375	-432.896728515625	264.9455871582031	1487.26708984375	-410.6896667480469	69.95882415771484	1374.855590820312	-430.37255859375	351.6447448730469	1329.223388671875	-528.7650756835938	267.897216796875	1457.725830078125	-311.9928283691406	189.6304473876953	1435.584228515625	-238.7243957519531	245.3805847167969	1309.039184570312	-172.1196594238281	281.8560485839844	1099.2021484375	-159.8311309814453	315.2138977050781	1089.130615234375	-241.4725646972656	200.2498016357422	853.8659057617188	-166.1551666259766	291.6800231933594	844.3231811523438	-147.4595184326172	288.0960998535156	987.5781860351562	-144.0845642089844	207.42529296875	667.2266845703125	-182.7711486816406	279.7179260253906	772.5751342773438	-146.6782073974609	207.7314300537109	774.1376953125	-143.2393798828125	211.5097961425781	1481.196533203125	-591.4951782226562	236.9418334960938	1427.303344726562	-667.5125122070312	252.9369964599609	1163.803466796875	-791.1397094726562	249.9320526123047	1127.856201171875	-696.6160888671875	81.45670318603516	962.23681640625	-835.8405151367188	158.1863861083984	944.1619873046875	-879.9451904296875	220.6093139648438	1100.232543945312	-827.4072265625	37.53020477294922	778.5305786132812	-861.9190063476562	43.17507171630859	878.2130126953125	-869.2921142578125	117.7069549560547	868.7188720703125	-899.1585083007812	144.4031829833984	1647.585693359375	-482.0076293945312	16.55656814575195	1641.8115234375	-306.5210571289062	-22.21613883972168	1650.376586914062	-430.8118286132812	190.0058441162109	1649.599365234375	-353.60888671875	190.8792419433594	946.7218017578125	-273.1560363769531	196.8343200683594	990.4862060546875	-643.2181396484375	105.3088455200195	1012.479248046875	-604.8480834960938	77.03564453125	992.2158203125	-348.5159912109375	-43.69084930419922	497.7284545898438	-353.4308166503906	27.46685218811035	617.2662963867188	-307.5921020507812	-191.1795196533203	50.4438362121582	-410.4490356445312	-104.1965408325195	278.2311706542969	-368.9921569824219	-369.3740234375	161.1654815673828	-358.2248840332031	-347.2052612304688	142.814453125	-418.2972106933594	-268.4503479003906	88.42066192626953	-337.0515747070312	-169.5504150390625	42.71152114868164	-493.0662231445312	275.7288818359375	498.6562805175781	-625.5238037109375	176.8135833740234	756.388916015625	-661.0565795898438	487.6050415039062	42.16022109985352	-590.4273071289062	296.2289123535156	376.9063415527344	-611.5667724609375	264.6891174316406	39.97088241577148	-630.5361938476562	301.9732971191406	44.98208236694336	-572.3456420898438	396.8265380859375	26.69156265258789	-662.6450805664062	513.7814331054688	51.14881134033203	-510.239990234375	
374	3.73	320.7336120605469	1026.681518554688	-496.4140930175781	301.7638854980469	1016.948974609375	-377.2043151855469	312.9841918945312	1057.312255859375	-440.9453125	42.37355041503906	1257.709594726562	-450.6708068847656	344.1408996582031	1224.094848632812	-433.0243530273438	254.9326019287109	1484.968872070312	-409.9516906738281	59.74075698852539	1372.474487304688	-428.6141357421875	341.0012512207031	1327.014526367188	-528.7693481445312	258.5012512207031	1455.183959960938	-311.3038635253906	180.7246856689453	1432.771728515625	-237.5008850097656	237.1319427490234	1305.791259765625	-172.1585388183594	273.9124755859375	1095.677856445312	-161.8879241943359	306.3453063964844	1086.284301757812	-243.9516906738281	192.2951812744141	850.3522338867188	-169.70556640625	283.7942199707031	840.6036987304688	-151.8296813964844	280.3492736816406	983.88623046875	-147.2698516845703	199.3983764648438	663.7974243164062	-188.2912902832031	271.8809204101562	768.8682250976562	-151.7650604248047	199.9076385498047	770.3639526367188	-147.8126525878906	200.3741302490234	1478.970703125	-590.5712280273438	225.3030700683594	1424.965576171875	-666.7101440429688	240.0439147949219	1161.36279296875	-790.4481201171875	237.5721435546875	1125.394897460938	-695.8873291015625	67.69778442382812	960.4000244140625	-833.8283081054688	144.008544921875	941.9977416992188	-878.4314575195312	207.2791442871094	1097.889404296875	-826.4741821289062	22.75719833374023	776.9495239257812	-859.552490234375	28.85201263427734	876.53564453125	-867.0031127929688	103.1066513061523	866.7325439453125	-897.3233642578125	134.2124938964844	1645.393920898438	-480.5143737792969	7.658934116363525	1639.775634765625	-304.11572265625	-31.9912166595459	1648.447875976562	-428.1438293457031	180.7823028564453	1647.323608398438	-352.4663391113281	180.91357421875	943.957275390625	-273.0074157714844	185.8502807617188	988.8114624023438	-642.8154296875	94.26592254638672	1010.47265625	-604.34912109375	66.67390441894531	989.5924072265625	-347.8328857421875	-54.14316558837891	496.2707824707031	-352.129150390625	17.47543525695801	614.9684448242188	-307.2886657714844	-207.9562530517578	50.87945175170898	-405.2275390625	-117.355224609375	277.8374328613281	-365.8194580078125	-383.7452392578125	164.1936798095703	-350.3605651855469	-362.8606872558594	145.3040161132812	-410.7481079101562	-283.4972534179688	90.09325408935547	-330.6714172363281	-187.7579345703125	42.55885696411133	-488.2177124023438	268.9124755859375	497.8849792480469	-625.9960327148438	167.5184478759766	754.86474609375	-661.1015014648438	487.3153381347656	43.81925964355469	-590.7918701171875	291.061767578125	376.2635192871094	-612.1187133789062	264.5610656738281	39.85497283935547	-630.6841430664062	301.8408813476562	44.94187164306641	-572.5093383789062	396.7031860351562	26.78262710571289	-662.7010498046875	513.5850219726562	53.74953842163086	-510.6949462890625	
375	3.74	309.9443054199219	1024.8759765625	-496.1544799804688	291.2224731445312	1014.646118164062	-377.0071411132812	302.3269958496094	1055.0830078125	-440.7175598144531	31.85899925231934	1255.594604492188	-448.8527221679688	333.7332458496094	1221.834716796875	-432.9427795410156	244.8256378173828	1482.8095703125	-408.99609375	49.41297912597656	1370.28857421875	-426.6752319335938	330.2420654296875	1324.934936523438	-528.5433349609375	248.9894561767578	1452.779296875	-310.4054260253906	171.6861419677734	1430.119750976562	-236.0799407958984	228.6788482666016	1302.708984375	-171.9811859130859	265.7020874023438	1092.339111328125	-163.6627655029297	297.3022766113281	1083.626586914062	-246.1016387939453	184.1092224121094	847.0179443359375	-173.0691833496094	275.6402893066406	837.1002197265625	-155.85205078125	272.3063049316406	980.3971557617188	-150.1455993652344	191.2060546875	660.5648803710938	-193.6781311035156	263.78369140625	765.3768310546875	-156.5353698730469	191.8265686035156	766.7699584960938	-152.2209930419922	189.1685638427734	1476.88525390625	-589.4366455078125	213.6212921142578	1422.750244140625	-665.6744384765625	227.2512969970703	1158.994384765625	-789.3436279296875	225.2519836425781	1123.042602539062	-694.7372436523438	54.15117645263672	958.5449829101562	-831.4428100585938	130.0941162109375	939.83642578125	-876.4778442382812	194.0883636474609	1095.5791015625	-825.1167602539062	8.29634952545166	775.3283081054688	-856.777587890625	14.80142402648926	874.81787109375	-864.3375854492188	88.80712890625	864.7274169921875	-895.0435791015625	123.9539566040039	1643.376953125	-478.8340148925781	-1.361967802047729	1637.896606445312	-301.5566101074219	-41.84940719604492	1646.674072265625	-425.3185424804688	171.4471282958984	1645.2138671875	-351.1216735839844	170.4397125244141	941.5064697265625	-272.6868286132812	174.6944274902344	987.2813110351562	-642.25	83.01466369628906	1008.65576171875	-603.7655639648438	55.97210311889648	987.2114868164062	-347.0733947753906	-65.23068237304688	495.0205078125	-350.3580322265625	6.653135776519775	613.2105712890625	-306.6590270996094	-222.3113555908203	50.51286315917969	-400.3268737792969	-129.8468170166016	277.0535583496094	-362.5456237792969	-396.3358764648438	165.3554229736328	-343.1374816894531	-376.5657348632812	146.0478210449219	-403.7756652832031	-296.4001770019531	90.51185607910156	-324.7210083007812	-203.3191833496094	41.7682991027832	-483.5975952148438	261.8280029296875	497.2713623046875	-626.5071411132812	157.9746246337891	753.4747924804688	-661.0709228515625	486.9882202148438	45.81689453125	-591.3689575195312	285.65966796875	375.7836303710938	-612.7394409179688	264.4446716308594	39.75169372558594	-630.8224487304688	301.7206115722656	44.92793655395508	-572.7095336914062	396.5108032226562	26.91511154174805	-662.802978515625	513.36962890625	56.82992935180664	-511.354248046875	
376	3.75	298.8439636230469	1023.2470703125	-495.6716613769531	280.3470153808594	1012.531799316406	-376.605224609375	291.37451171875	1053.004150390625	-440.29833984375	21.17963027954102	1253.726318359375	-446.8762817382812	323.1069030761719	1219.685791015625	-432.6546630859375	234.6468811035156	1480.806396484375	-407.82080078125	38.98061752319336	1368.350341796875	-424.5509643554688	319.3599548339844	1322.998657226562	-528.0831909179688	239.3730926513672	1450.529663085938	-309.2940979003906	162.5187835693359	1427.662231445312	-234.4603118896484	220.0247955322266	1299.826171875	-171.5711517333984	257.2077331542969	1089.2265625	-165.1469268798828	288.0718383789062	1081.190307617188	-247.9178619384766	175.6925659179688	843.900146484375	-176.2246246337891	267.2225036621094	833.8599853515625	-159.4798889160156	263.9581909179688	977.1533813476562	-152.6865997314453	182.8528900146484	657.5630493164062	-198.8923187255859	255.4359283447266	762.1433715820312	-160.9383850097656	183.4920806884766	763.3939819335938	-156.4278564453125	177.9176788330078	1474.984375	-588.0784301757812	201.9132690429688	1420.708740234375	-664.4004516601562	214.5700378417969	1156.74072265625	-787.814208984375	212.9764862060547	1120.852905273438	-693.147705078125	40.82417678833008	956.70458984375	-828.6849365234375	116.4483642578125	937.715087890625	-874.0843505859375	181.0570831298828	1093.346923828125	-823.3276977539062	-5.818354606628418	773.6883544921875	-853.588623046875	1.041785955429077	873.0860595703125	-861.2899780273438	74.83030700683594	862.7361450195312	-892.31787109375	113.6215286254883	1641.554565429688	-476.9592895507812	-10.50978374481201	1636.196899414062	-298.8422241210938	-51.7945556640625	1645.075439453125	-422.3348083496094	161.9974060058594	1643.295532226562	-349.5667114257812	159.4015502929688	939.4384765625	-272.177001953125	163.3077087402344	985.9059448242188	-641.5221557617188	71.51120758056641	1007.060852050781	-603.0818481445312	44.88577270507812	985.135498046875	-346.232666015625	-76.84416198730469	493.9340209960938	-348.1097412109375	-4.914435386657715	611.9780883789062	-305.6641235351562	-234.2577667236328	49.28792190551758	-395.852783203125	-141.6172332763672	275.8301391601562	-359.2287292480469	-407.1939697265625	164.5607299804688	-336.57275390625	-388.3770141601562	144.9652404785156	-397.4145202636719	-307.161376953125	89.60929107666016	-319.2823791503906	-216.2803802490234	40.28194046020508	-479.3453674316406	254.4562530517578	496.82861328125	-627.0432739257812	148.1504211425781	752.232666015625	-660.9502563476562	486.604248046875	48.17497634887695	-592.1664428710938	280.01025390625	375.4891357421875	-613.4288330078125	264.3409729003906	39.66682815551758	-630.9452514648438	301.6064147949219	44.94942855834961	-572.9475708007812	396.2268981933594	27.09853553771973	-662.959716796875	513.1077270507812	60.41921615600586	-512.236328125	
